<svg xmlns="http://www.w3.org/2000/svg"><circle cx="500" cy="100" r="70" stroke="red" stroke-width="3" fill="red" style="fill:rgb(255, 255, 50)"/><text x="480" y="100" fill="red">TUES</text><circle cx="330" cy="250" r="50" stroke="red" stroke-width="3" fill="red" style="fill:rgb(255, 255, 55)"/><text x="320" y="240" fill="red">11a</text><line x1="500" y1="170" x2="340" y2="200" style="stroke:rgb(255,0,0);stroke-width:2" /><rect width="100" height="50" x="80" y="400" style="fill:rgb(255,255,255);stroke-width:3;stroke:rgb(0,0,0)" /><text x="90" y="430" fill="red">Aleksandar</text><line x1="115" y1="400" x2="325" y2="300" style="stroke:rgb(255,0,0);stroke-width:2" /><rect width="100" height="50" x="210" y="400" style="fill:rgb(255,255,255);stroke-width:3;stroke:rgb(0,0,0)" /><text x="220" y="430" fill="red">Andrea</text><line x1="245" y1="400" x2="325" y2="300" style="stroke:rgb(255,0,0);stroke-width:2" /><rect width="100" height="50" x="340" y="400" style="fill:rgb(255,255,255);stroke-width:3;stroke:rgb(0,0,0)" /><text x="350" y="430" fill="red">Antonio</text><line x1="375" y1="400" x2="325" y2="300" style="stroke:rgb(255,0,0);stroke-width:2" /><circle cx="630" cy="250" r="50" stroke="red" stroke-width="3" fill="red" style="fill:rgb(255, 255, 55)"/><text x="620" y="240" fill="red">11b</text><line x1="500" y1="170" x2="640" y2="200" style="stroke:rgb(255,0,0);stroke-width:2" /><rect width="100" height="50" x="470" y="400" style="fill:rgb(255,255,255);stroke-width:3;stroke:rgb(0,0,0)" /><text x="480" y="430" fill="red">Asen</text><line x1="505" y1="400" x2="625" y2="300" style="stroke:rgb(255,0,0);stroke-width:2" /><rect width="100" height="50" x="600" y="400" style="fill:rgb(255,255,255);stroke-width:3;stroke:rgb(0,0,0)" /><text x="610" y="430" fill="red">Atanas</text><line x1="635" y1="400" x2="625" y2="300" style="stroke:rgb(255,0,0);stroke-width:2" /><rect width="100" height="50" x="730" y="400" style="fill:rgb(255,255,255);stroke-width:3;stroke:rgb(0,0,0)" /><text x="740" y="430" fill="red">Bojidar</text><line x1="765" y1="400" x2="625" y2="300" style="stroke:rgb(255,0,0);stroke-width:2" /></svg>