<svg xmlns = "http://www.w3.org/2000/svg">
<circle cx = "40" cy = "40" r = "40" stroke = "black" stroke-width = "2" fill = "none"/>
<text x = "25" y = "45" fill = "black">TUES</text> 
<circle cx = "140" cy = "140" r = "40" stroke = "black" stroke-width = "2" fill = "none"/>
<text x = "125" y = "145" fill = "black">11A</text> 
<circle cx = "240" cy = "240" r = "40" stroke = "black" stroke-width = "2" fill = "none"/>
<text x = "225" y = "245" fill = "black">Student</text> 
<circle cx = "340" cy = "340" r = "40" stroke = "black" stroke-width = "2" fill = "none"/>
<text x = "325" y = "345" fill = "black">name</text> 
{"name"=>"Georgi"}<circle cx = "340" cy = "340" r = "40" stroke = "black" stroke-width = "2" fill = "none"/>
<text x = "325" y = "345" fill = "black">fname</text> 
{"fname"=>"Stoilov"}{"Student"=>[{"name"=>"Georgi"}, {"fname"=>"Stoilov"}]}<circle cx = "240" cy = "240" r = "40" stroke = "black" stroke-width = "2" fill = "none"/>
<text x = "225" y = "245" fill = "black">Student</text> 
<circle cx = "340" cy = "340" r = "40" stroke = "black" stroke-width = "2" fill = "none"/>
<text x = "325" y = "345" fill = "black">name</text> 
{"name"=>"Tuma"}<circle cx = "340" cy = "340" r = "40" stroke = "black" stroke-width = "2" fill = "none"/>
<text x = "325" y = "345" fill = "black">fname</text> 
{"fname"=>"Marinov"}{"Student"=>[{"name"=>"Tuma"}, {"fname"=>"Marinov"}]}<circle cx = "240" cy = "240" r = "40" stroke = "black" stroke-width = "2" fill = "none"/>
<text x = "225" y = "245" fill = "black">Student</text> 
<circle cx = "340" cy = "340" r = "40" stroke = "black" stroke-width = "2" fill = "none"/>
<text x = "325" y = "345" fill = "black">name</text> 
{"name"=>"Bore4"}<circle cx = "340" cy = "340" r = "40" stroke = "black" stroke-width = "2" fill = "none"/>
<text x = "325" y = "345" fill = "black">fname</text> 
{"fname"=>"Cankovic"}{"Student"=>[{"name"=>"Bore4"}, {"fname"=>"Cankovic"}]}{"11A"=>[{"Student"=>[{"name"=>"Georgi"}, {"fname"=>"Stoilov"}]}, {"Student"=>[{"name"=>"Tuma"}, {"fname"=>"Marinov"}]}, {"Student"=>[{"name"=>"Bore4"}, {"fname"=>"Cankovic"}]}]}<circle cx = "140" cy = "140" r = "40" stroke = "black" stroke-width = "2" fill = "none"/>
<text x = "125" y = "145" fill = "black">11B</text> 
<circle cx = "240" cy = "240" r = "40" stroke = "black" stroke-width = "2" fill = "none"/>
<text x = "225" y = "245" fill = "black">Student</text> 
<circle cx = "340" cy = "340" r = "40" stroke = "black" stroke-width = "2" fill = "none"/>
<text x = "325" y = "345" fill = "black">name</text> 
{"name"=>"Georgi"}<circle cx = "340" cy = "340" r = "40" stroke = "black" stroke-width = "2" fill = "none"/>
<text x = "325" y = "345" fill = "black">fname</text> 
{"fname"=>"Stoilov"}{"Student"=>[{"name"=>"Georgi"}, {"fname"=>"Stoilov"}]}<circle cx = "240" cy = "240" r = "40" stroke = "black" stroke-width = "2" fill = "none"/>
<text x = "225" y = "245" fill = "black">Student</text> 
<circle cx = "340" cy = "340" r = "40" stroke = "black" stroke-width = "2" fill = "none"/>
<text x = "325" y = "345" fill = "black">name</text> 
{"name"=>"Tuma"}<circle cx = "340" cy = "340" r = "40" stroke = "black" stroke-width = "2" fill = "none"/>
<text x = "325" y = "345" fill = "black">fname</text> 
{"fname"=>"Marinov"}{"Student"=>[{"name"=>"Tuma"}, {"fname"=>"Marinov"}]}<circle cx = "240" cy = "240" r = "40" stroke = "black" stroke-width = "2" fill = "none"/>
<text x = "225" y = "245" fill = "black">Student</text> 
<circle cx = "340" cy = "340" r = "40" stroke = "black" stroke-width = "2" fill = "none"/>
<text x = "325" y = "345" fill = "black">name</text> 
{"name"=>"Bore4"}<circle cx = "340" cy = "340" r = "40" stroke = "black" stroke-width = "2" fill = "none"/>
<text x = "325" y = "345" fill = "black">fname</text> 
{"fname"=>"Cankovic"}{"Student"=>[{"name"=>"Bore4"}, {"fname"=>"Cankovic"}]}{"11B"=>[{"Student"=>[{"name"=>"Georgi"}, {"fname"=>"Stoilov"}]}, {"Student"=>[{"name"=>"Tuma"}, {"fname"=>"Marinov"}]}, {"Student"=>[{"name"=>"Bore4"}, {"fname"=>"Cankovic"}]}]}</svg>