<svg xmlns="http://www.w3.org/2000/svg"><rect x="20" y ="1" width ="65" height="50" style="fill:rgb(211,211,211)"/><text x="25" y="50" fill="black" font-size = "17">end</text><text x="45" y="75" fill = "black" font-size="20">2</text><rect x="90" y ="1" width ="65" height="25" style="fill:rgb(211,211,211)"/><text x="95" y="25" fill="black" font-size = "17">0</text><text x="115" y="50" fill = "black" font-size="20">1</text><rect x="160" y ="1" width ="65" height="25" style="fill:rgb(211,211,211)"/><text x="165" y="25" fill="black" font-size = "17">class</text><text x="185" y="50" fill = "black" font-size="20">1</text><rect x="230" y ="1" width ="65" height="25" style="fill:rgb(211,211,211)"/><text x="235" y="25" fill="black" font-size = "17">def</text><text x="255" y="50" fill = "black" font-size="20">1</text><rect x="300" y ="1" width ="65" height="25" style="fill:rgb(211,211,211)"/><text x="305" y="25" fill="black" font-size = "17">i</text><text x="325" y="50" fill = "black" font-size="20">1</text><rect x="370" y ="1" width ="65" height="25" style="fill:rgb(211,211,211)"/><text x="375" y="25" fill="black" font-size = "14">method</text><text x="395" y="50" fill = "black" font-size="20">1</text><rect x="440" y ="1" width ="65" height="25" style="fill:rgb(211,211,211)"/><text x="445" y="25" fill="black" font-size = "14">myclass</text><text x="465" y="50" fill = "black" font-size="20">1</text><rect x="510" y ="1" width ="65" height="25" style="fill:rgb(211,211,211)"/><text x="515" y="25" fill="black" font-size = "14">p</text><text x="535" y="50" fill = "black" font-size="20">1</text><rect x="580" y ="1" width ="65" height="25" style="fill:rgb(211,211,211)"/><text x="585" y="25" fill="black" font-size = "14">q</text><text x="605" y="50" fill = "black" font-size="20">1</text></svg>