<svg xmlns="http://www.w3.org/2000/svg" width="1230" height="650"><text x="5" y="35" fill="black">"Marks":</text><text x="75" y="35" fill="black">4</text><rect x="5" y="540" width="60" height="60" style="fill:rgb(0,191,255);stroke-width:2;stroke:rgb(0,0,0)"/><text x="20" y="525" fill="black">2</text><text x="20" y="615" fill="black">end</text><rect x="75" y="570" width="60" height="30" style="fill:rgb(0,191,255);stroke-width:2;stroke:rgb(0,0,0)"/><text x="90" y="555" fill="black">1</text><text x="90" y="630" fill="black">0</text><rect x="145" y="570" width="60" height="30" style="fill:rgb(0,191,255);stroke-width:2;stroke:rgb(0,0,0)"/><text x="160" y="555" fill="black">1</text><text x="160" y="615" fill="black">class</text><rect x="215" y="570" width="60" height="30" style="fill:rgb(0,191,255);stroke-width:2;stroke:rgb(0,0,0)"/><text x="230" y="555" fill="black">1</text><text x="230" y="630" fill="black">def</text><rect x="285" y="570" width="60" height="30" style="fill:rgb(0,191,255);stroke-width:2;stroke:rgb(0,0,0)"/><text x="300" y="555" fill="black">1</text><text x="300" y="615" fill="black">i</text><rect x="355" y="570" width="60" height="30" style="fill:rgb(0,191,255);stroke-width:2;stroke:rgb(0,0,0)"/><text x="370" y="555" fill="black">1</text><text x="370" y="630" fill="black">method</text><rect x="425" y="570" width="60" height="30" style="fill:rgb(0,191,255);stroke-width:2;stroke:rgb(0,0,0)"/><text x="440" y="555" fill="black">1</text><text x="425" y="615" fill="black">myclass</text><rect x="495" y="570" width="60" height="30" style="fill:rgb(0,191,255);stroke-width:2;stroke:rgb(0,0,0)"/><text x="510" y="555" fill="black">1</text><text x="510" y="630" fill="black">p</text><rect x="565" y="570" width="60" height="30" style="fill:rgb(0,191,255);stroke-width:2;stroke:rgb(0,0,0)"/><text x="580" y="555" fill="black">1</text><text x="580" y="615" fill="black">q</text></svg>