<svg xmlns="http://www.w3.org/2000/svg"><rect width="40" height="110" x="10" y="100" style="fill:rgb(0,255,128);stroke-width:3;stroke:rgb(0,0,0)"/><text x="12" y="250" fill="black" transform="rotate(90 10,20)" >end</text><rect width="40" height="110" x="70" y="100" style="fill:rgb(0,255,128);stroke-width:3;stroke:rgb(0,0,0)"/><text x="72" y="-250" fill="black" transform="rotate(90 10,20)" >result</text><rect width="40" height="100" x="130" y="110" style="fill:rgb(0,255,128);stroke-width:3;stroke:rgb(0,0,0)"/><text x="132" y="-250" fill="black" transform="rotate(90 10,20)" >filename</text><rect width="40" height="90" x="190" y="120" style="fill:rgb(0,255,128);stroke-width:3;stroke:rgb(0,0,0)"/><text x="192" y="-250" fill="black" transform="rotate(90 10,20)" >file</text><rect width="40" height="90" x="250" y="120" style="fill:rgb(0,255,128);stroke-width:3;stroke:rgb(0,0,0)"/><text x="252" y="-250" fill="black" transform="rotate(90 10,20)" >option</text><rect width="40" height="50" x="310" y="160" style="fill:rgb(0,255,128);stroke-width:3;stroke:rgb(0,0,0)"/><text x="312" y="-250" fill="black" transform="rotate(90 10,20)" >argv</text><rect width="40" height="40" x="370" y="170" style="fill:rgb(0,255,128);stroke-width:3;stroke:rgb(0,0,0)"/><text x="372" y="-250" fill="black" transform="rotate(90 10,20)" >def</text><rect width="40" height="40" x="430" y="170" style="fill:rgb(0,255,128);stroke-width:3;stroke:rgb(0,0,0)"/><text x="432" y="-250" fill="black" transform="rotate(90 10,20)" >do</text><rect width="40" height="40" x="490" y="170" style="fill:rgb(0,255,128);stroke-width:3;stroke:rgb(0,0,0)"/><text x="492" y="-250" fill="black" transform="rotate(90 10,20)" >elsif</text><rect width="40" height="40" x="550" y="170" style="fill:rgb(0,255,128);stroke-width:3;stroke:rgb(0,0,0)"/><text x="552" y="-250" fill="black" transform="rotate(90 10,20)" >f</text><rect width="40" height="40" x="610" y="170" style="fill:rgb(0,255,128);stroke-width:3;stroke:rgb(0,0,0)"/><text x="612" y="-250" fill="black" transform="rotate(90 10,20)" >filepath</text><rect width="40" height="40" x="670" y="170" style="fill:rgb(0,255,128);stroke-width:3;stroke:rgb(0,0,0)"/><text x="672" y="-250" fill="black" transform="rotate(90 10,20)" >first</text><rect width="40" height="40" x="730" y="170" style="fill:rgb(0,255,128);stroke-width:3;stroke:rgb(0,0,0)"/><text x="732" y="-250" fill="black" transform="rotate(90 10,20)" >format</text><rect width="40" height="40" x="790" y="170" style="fill:rgb(0,255,128);stroke-width:3;stroke:rgb(0,0,0)"/><text x="792" y="-250" fill="black" transform="rotate(90 10,20)" >line</text><rect width="40" height="30" x="850" y="180" style="fill:rgb(0,255,128);stroke-width:3;stroke:rgb(0,0,0)"/><text x="852" y="-250" fill="black" transform="rotate(90 10,20)" >csv</text><rect width="40" height="30" x="910" y="180" style="fill:rgb(0,255,128);stroke-width:3;stroke:rgb(0,0,0)"/><text x="912" y="-250" fill="black" transform="rotate(90 10,20)" >else</text><rect width="40" height="30" x="970" y="180" style="fill:rgb(0,255,128);stroke-width:3;stroke:rgb(0,0,0)"/><text x="972" y="-250" fill="black" transform="rotate(90 10,20)" >fil</text><rect width="40" height="30" x="1030" y="180" style="fill:rgb(0,255,128);stroke-width:3;stroke:rgb(0,0,0)"/><text x="1032" y="-250" fill="black" transform="rotate(90 10,20)" >if</text><rect width="40" height="30" x="1090" y="180" style="fill:rgb(0,255,128);stroke-width:3;stroke:rgb(0,0,0)"/><text x="1092" y="-250" fill="black" transform="rotate(90 10,20)" >merged_files</text><rect width="40" height="30" x="1150" y="180" style="fill:rgb(0,255,128);stroke-width:3;stroke:rgb(0,0,0)"/><text x="1152" y="-250" fill="black" transform="rotate(90 10,20)" >printres</text><rect width="40" height="30" x="1210" y="180" style="fill:rgb(0,255,128);stroke-width:3;stroke:rgb(0,0,0)"/><text x="1212" y="-250" fill="black" transform="rotate(90 10,20)" >txt</text><rect width="40" height="20" x="1270" y="190" style="fill:rgb(0,255,128);stroke-width:3;stroke:rgb(0,0,0)"/><text x="1272" y="-250" fill="black" transform="rotate(90 10,20)" >0</text><rect width="40" height="20" x="1330" y="190" style="fill:rgb(0,255,128);stroke-width:3;stroke:rgb(0,0,0)"/><text x="1332" y="-250" fill="black" transform="rotate(90 10,20)" >1</text><rect width="40" height="20" x="1390" y="190" style="fill:rgb(0,255,128);stroke-width:3;stroke:rgb(0,0,0)"/><text x="1392" y="-250" fill="black" transform="rotate(90 10,20)" >con</text><rect width="40" height="20" x="1450" y="190" style="fill:rgb(0,255,128);stroke-width:3;stroke:rgb(0,0,0)"/><text x="1452" y="-250" fill="black" transform="rotate(90 10,20)" >each</text><rect width="40" height="20" x="1510" y="190" style="fill:rgb(0,255,128);stroke-width:3;stroke:rgb(0,0,0)"/><text x="1512" y="-250" fill="black" transform="rotate(90 10,20)" >fileorsite</text><rect width="40" height="20" x="1570" y="190" style="fill:rgb(0,255,128);stroke-width:3;stroke:rgb(0,0,0)"/><text x="1572" y="-250" fill="black" transform="rotate(90 10,20)" >filepathparser</text><rect width="40" height="20" x="1630" y="190" style="fill:rgb(0,255,128);stroke-width:3;stroke:rgb(0,0,0)"/><text x="1632" y="-250" fill="black" transform="rotate(90 10,20)" >files</text><rect width="40" height="20" x="1690" y="190" style="fill:rgb(0,255,128);stroke-width:3;stroke:rgb(0,0,0)"/><text x="1692" y="-250" fill="black" transform="rotate(90 10,20)" >open</text><rect width="40" height="20" x="1750" y="190" style="fill:rgb(0,255,128);stroke-width:3;stroke:rgb(0,0,0)"/><text x="1752" y="-250" fill="black" transform="rotate(90 10,20)" >print</text><rect width="40" height="20" x="1810" y="190" style="fill:rgb(0,255,128);stroke-width:3;stroke:rgb(0,0,0)"/><text x="1812" y="-250" fill="black" transform="rotate(90 10,20)" >puts</text><rect width="40" height="20" x="1870" y="190" style="fill:rgb(0,255,128);stroke-width:3;stroke:rgb(0,0,0)"/><text x="1872" y="-250" fill="black" transform="rotate(90 10,20)" >to_csv</text><rect width="40" height="20" x="1930" y="190" style="fill:rgb(0,255,128);stroke-width:3;stroke:rgb(0,0,0)"/><text x="1932" y="-250" fill="black" transform="rotate(90 10,20)" >to_svg</text><rect width="40" height="20" x="1990" y="190" style="fill:rgb(0,255,128);stroke-width:3;stroke:rgb(0,0,0)"/><text x="1992" y="-250" fill="black" transform="rotate(90 10,20)" >wordcounter</text><rect width="40" height="10" x="2050" y="200" style="fill:rgb(0,255,128);stroke-width:3;stroke:rgb(0,0,0)"/><text x="2052" y="-250" fill="black" transform="rotate(90 10,20)" >2</text><rect width="40" height="10" x="2110" y="200" style="fill:rgb(0,255,128);stroke-width:3;stroke:rgb(0,0,0)"/><text x="2112" y="-250" fill="black" transform="rotate(90 10,20)" >a</text><rect width="40" height="10" x="2170" y="200" style="fill:rgb(0,255,128);stroke-width:3;stroke:rgb(0,0,0)"/><text x="2172" y="-250" fill="black" transform="rotate(90 10,20)" >a_12_emil_lozev</text><rect width="40" height="10" x="2230" y="200" style="fill:rgb(0,255,128);stroke-width:3;stroke:rgb(0,0,0)"/><text x="2232" y="-250" fill="black" transform="rotate(90 10,20)" >builder</text><rect width="40" height="10" x="2290" y="200" style="fill:rgb(0,255,128);stroke-width:3;stroke:rgb(0,0,0)"/><text x="2292" y="-250" fill="black" transform="rotate(90 10,20)" >d</text><rect width="40" height="10" x="2350" y="200" style="fill:rgb(0,255,128);stroke-width:3;stroke:rgb(0,0,0)"/><text x="2352" y="-250" fill="black" transform="rotate(90 10,20)" >delete</text><rect width="40" height="10" x="2410" y="200" style="fill:rgb(0,255,128);stroke-width:3;stroke:rgb(0,0,0)"/><text x="2412" y="-250" fill="black" transform="rotate(90 10,20)" >dir</text><rect width="40" height="10" x="2470" y="200" style="fill:rgb(0,255,128);stroke-width:3;stroke:rgb(0,0,0)"/><text x="2472" y="-250" fill="black" transform="rotate(90 10,20)" >each_line</text><rect width="40" height="10" x="2530" y="200" style="fill:rgb(0,255,128);stroke-width:3;stroke:rgb(0,0,0)"/><text x="2532" y="-250" fill="black" transform="rotate(90 10,20)" >glob</text><rect width="40" height="10" x="2590" y="200" style="fill:rgb(0,255,128);stroke-width:3;stroke:rgb(0,0,0)"/><text x="2592" y="-250" fill="black" transform="rotate(90 10,20)" >http</text><rect width="40" height="10" x="2650" y="200" style="fill:rgb(0,255,128);stroke-width:3;stroke:rgb(0,0,0)"/><text x="2652" y="-250" fill="black" transform="rotate(90 10,20)" >https</text><rect width="40" height="10" x="2710" y="200" style="fill:rgb(0,255,128);stroke-width:3;stroke:rgb(0,0,0)"/><text x="2712" y="-250" fill="black" transform="rotate(90 10,20)" >json</text><rect width="40" height="10" x="2770" y="200" style="fill:rgb(0,255,128);stroke-width:3;stroke:rgb(0,0,0)"/><text x="2772" y="-250" fill="black" transform="rotate(90 10,20)" >parse</text><rect width="40" height="10" x="2830" y="200" style="fill:rgb(0,255,128);stroke-width:3;stroke:rgb(0,0,0)"/><text x="2832" y="-250" fill="black" transform="rotate(90 10,20)" >parse_file</text><rect width="40" height="10" x="2890" y="200" style="fill:rgb(0,255,128);stroke-width:3;stroke:rgb(0,0,0)"/><text x="2892" y="-250" fill="black" transform="rotate(90 10,20)" >parse_webpage</text><rect width="40" height="10" x="2950" y="200" style="fill:rgb(0,255,128);stroke-width:3;stroke:rgb(0,0,0)"/><text x="2952" y="-250" fill="black" transform="rotate(90 10,20)" >parser</text><rect width="40" height="10" x="3010" y="200" style="fill:rgb(0,255,128);stroke-width:3;stroke:rgb(0,0,0)"/><text x="3012" y="-250" fill="black" transform="rotate(90 10,20)" >read</text><rect width="40" height="10" x="3070" y="200" style="fill:rgb(0,255,128);stroke-width:3;stroke:rgb(0,0,0)"/><text x="3072" y="-250" fill="black" transform="rotate(90 10,20)" >require</text><rect width="40" height="10" x="3130" y="200" style="fill:rgb(0,255,128);stroke-width:3;stroke:rgb(0,0,0)"/><text x="3132" y="-250" fill="black" transform="rotate(90 10,20)" >require_relative</text><rect width="40" height="10" x="3190" y="200" style="fill:rgb(0,255,128);stroke-width:3;stroke:rgb(0,0,0)"/><text x="3192" y="-250" fill="black" transform="rotate(90 10,20)" >return</text><rect width="40" height="10" x="3250" y="200" style="fill:rgb(0,255,128);stroke-width:3;stroke:rgb(0,0,0)"/><text x="3252" y="-250" fill="black" transform="rotate(90 10,20)" >select</text><rect width="40" height="10" x="3310" y="200" style="fill:rgb(0,255,128);stroke-width:3;stroke:rgb(0,0,0)"/><text x="3312" y="-250" fill="black" transform="rotate(90 10,20)" >split</text><rect width="40" height="10" x="3370" y="200" style="fill:rgb(0,255,128);stroke-width:3;stroke:rgb(0,0,0)"/><text x="3372" y="-250" fill="black" transform="rotate(90 10,20)" >svg</text><rect width="40" height="10" x="3430" y="200" style="fill:rgb(0,255,128);stroke-width:3;stroke:rgb(0,0,0)"/><text x="3432" y="-250" fill="black" transform="rotate(90 10,20)" >to_json</text><rect width="40" height="10" x="3490" y="200" style="fill:rgb(0,255,128);stroke-width:3;stroke:rgb(0,0,0)"/><text x="3492" y="-250" fill="black" transform="rotate(90 10,20)" >to_xml</text><rect width="40" height="10" x="3550" y="200" style="fill:rgb(0,255,128);stroke-width:3;stroke:rgb(0,0,0)"/><text x="3552" y="-250" fill="black" transform="rotate(90 10,20)" >w</text><rect width="40" height="10" x="3610" y="200" style="fill:rgb(0,255,128);stroke-width:3;stroke:rgb(0,0,0)"/><text x="3612" y="-250" fill="black" transform="rotate(90 10,20)" >word_counter</text><rect width="40" height="10" x="3670" y="200" style="fill:rgb(0,255,128);stroke-width:3;stroke:rgb(0,0,0)"/><text x="3672" y="-250" fill="black" transform="rotate(90 10,20)" >xml</text><rect width="40" height="1760" x="3730" y="-1550" style="fill:rgb(0,255,128);stroke-width:3;stroke:rgb(0,0,0)"/><text x="3732" y="250" fill="black">marks</text></svg>