<svg xmlns="http://www.w3.org/2000/svg"><rect x="100" y="100" width="50" height="200" fill="red"/><text x="100" y="320" fill="black">end</text><text x="100" y="80" fill="black">2</text><rect x="160" y="200" width="50" height="100" fill="red"/><text x="160" y="320" fill="black">0</text><text x="160" y="180" fill="black">1</text><rect x="220" y="200" width="50" height="100" fill="red"/><text x="220" y="320" fill="black">class</text><text x="220" y="180" fill="black">1</text><rect x="280" y="200" width="50" height="100" fill="red"/><text x="280" y="320" fill="black">def</text><text x="280" y="180" fill="black">1</text><rect x="340" y="200" width="50" height="100" fill="red"/><text x="340" y="320" fill="black">i</text><text x="340" y="180" fill="black">1</text><rect x="400" y="200" width="50" height="100" fill="red"/><text x="400" y="320" fill="black">method</text><text x="400" y="180" fill="black">1</text><rect x="460" y="200" width="50" height="100" fill="red"/><text x="460" y="320" fill="black">myclass</text><text x="460" y="180" fill="black">1</text><rect x="520" y="200" width="50" height="100" fill="red"/><text x="520" y="320" fill="black">p</text><text x="520" y="180" fill="black">1</text><rect x="580" y="200" width="50" height="100" fill="red"/><text x="580" y="320" fill="black">q</text><text x="580" y="180" fill="black">1</text></svg>