<svg xmlns="http://www.w3.org/2000/svg"><text x="35" y="179">18</text><rect x="20" y="181" width="50" height="54" style="fill:lightblue;stroke-width:3;stroke:red;opacity:0.7"></rect><text x="20" y="246">is</text><text x="145" y="182">17</text><rect x="130" y="184" width="50" height="51" style="fill:lightblue;stroke-width:3;stroke:red;opacity:0.7"></rect><text x="130" y="246">a</text><text x="255" y="188">15</text><rect x="240" y="190" width="50" height="45" style="fill:lightblue;stroke-width:3;stroke:red;opacity:0.7"></rect><text x="240" y="246">file</text><text x="365" y="188">15</text><rect x="350" y="190" width="50" height="45" style="fill:lightblue;stroke-width:3;stroke:red;opacity:0.7"></rect><text x="350" y="246">the</text><text x="475" y="191">14</text><rect x="460" y="193" width="50" height="42" style="fill:lightblue;stroke-width:3;stroke:red;opacity:0.7"></rect><text x="460" y="246">readme</text><text x="585" y="197">12</text><rect x="570" y="199" width="50" height="36" style="fill:lightblue;stroke-width:3;stroke:red;opacity:0.7"></rect><text x="570" y="246">this</text><text x="695" y="212">7</text><rect x="680" y="214" width="50" height="21" style="fill:lightblue;stroke-width:3;stroke:red;opacity:0.7"></rect><text x="680" y="246">in</text><text x="805" y="215">6</text><rect x="790" y="217" width="50" height="18" style="fill:lightblue;stroke-width:3;stroke:red;opacity:0.7"></rect><text x="790" y="246">line</text><text x="915" y="218">5</text><rect x="900" y="220" width="50" height="15" style="fill:lightblue;stroke-width:3;stroke:red;opacity:0.7"></rect><text x="900" y="246">to</text><text x="1025" y="221">4</text><rect x="1010" y="223" width="50" height="12" style="fill:lightblue;stroke-width:3;stroke:red;opacity:0.7"></rect><text x="1010" y="246">an</text><text x="35" y="431">4</text><rect x="20" y="433" width="50" height="12" style="fill:lightblue;stroke-width:3;stroke:red;opacity:0.7"></rect><text x="20" y="456">and</text><text x="145" y="431">4</text><rect x="130" y="433" width="50" height="12" style="fill:lightblue;stroke-width:3;stroke:red;opacity:0.7"></rect><text x="130" y="456">new</text><text x="255" y="431">4</text><rect x="240" y="433" width="50" height="12" style="fill:lightblue;stroke-width:3;stroke:red;opacity:0.7"></rect><text x="240" y="456">program</text><text x="365" y="431">4</text><rect x="350" y="433" width="50" height="12" style="fill:lightblue;stroke-width:3;stroke:red;opacity:0.7"></rect><text x="350" y="456">ruby</text><text x="475" y="434">3</text><rect x="460" y="436" width="50" height="9" style="fill:lightblue;stroke-width:3;stroke:red;opacity:0.7"></rect><text x="460" y="456">as</text><text x="585" y="434">3</text><rect x="570" y="436" width="50" height="9" style="fill:lightblue;stroke-width:3;stroke:red;opacity:0.7"></rect><text x="570" y="456">create</text><text x="695" y="434">3</text><rect x="680" y="436" width="50" height="9" style="fill:lightblue;stroke-width:3;stroke:red;opacity:0.7"></rect><text x="680" y="456">equation</text><text x="805" y="434">3</text><rect x="790" y="436" width="50" height="9" style="fill:lightblue;stroke-width:3;stroke:red;opacity:0.7"></rect><text x="790" y="456">from</text><text x="915" y="434">3</text><rect x="900" y="436" width="50" height="9" style="fill:lightblue;stroke-width:3;stroke:red;opacity:0.7"></rect><text x="900" y="456">one</text><text x="1025" y="434">3</text><rect x="1010" y="436" width="50" height="9" style="fill:lightblue;stroke-width:3;stroke:red;opacity:0.7"></rect><text x="1010" y="456">only</text><text x="1135" y="434">3</text><rect x="1120" y="436" width="50" height="9" style="fill:lightblue;stroke-width:3;stroke:red;opacity:0.7"></rect><text x="1120" y="456">solution</text><text x="35" y="644">3</text><rect x="20" y="646" width="50" height="9" style="fill:lightblue;stroke-width:3;stroke:red;opacity:0.7"></rect><text x="20" y="666">tasks</text><text x="145" y="644">3</text><rect x="130" y="646" width="50" height="9" style="fill:lightblue;stroke-width:3;stroke:red;opacity:0.7"></rect><text x="130" y="666">vhodnonivo</text><text x="255" y="647">2</text><rect x="240" y="649" width="50" height="6" style="fill:lightblue;stroke-width:3;stroke:red;opacity:0.7"></rect><text x="240" y="666">arguments</text><text x="365" y="647">2</text><rect x="350" y="649" width="50" height="6" style="fill:lightblue;stroke-width:3;stroke:red;opacity:0.7"></rect><text x="350" y="666">b</text><text x="475" y="647">2</text><rect x="460" y="649" width="50" height="6" style="fill:lightblue;stroke-width:3;stroke:red;opacity:0.7"></rect><text x="460" y="666">by</text><text x="585" y="647">2</text><rect x="570" y="649" width="50" height="6" style="fill:lightblue;stroke-width:3;stroke:red;opacity:0.7"></rect><text x="570" y="666">c</text><text x="695" y="647">2</text><rect x="680" y="649" width="50" height="6" style="fill:lightblue;stroke-width:3;stroke:red;opacity:0.7"></rect><text x="680" y="666">command</text><text x="805" y="647">2</text><rect x="790" y="649" width="50" height="6" style="fill:lightblue;stroke-width:3;stroke:red;opacity:0.7"></rect><text x="790" y="666">commit</text><text x="915" y="647">2</text><rect x="900" y="649" width="50" height="6" style="fill:lightblue;stroke-width:3;stroke:red;opacity:0.7"></rect><text x="900" y="666">empty</text><text x="1025" y="647">2</text><rect x="1010" y="649" width="50" height="6" style="fill:lightblue;stroke-width:3;stroke:red;opacity:0.7"></rect><text x="1010" y="666">exemplary</text><text x="1135" y="647">2</text><rect x="1120" y="649" width="50" height="6" style="fill:lightblue;stroke-width:3;stroke:red;opacity:0.7"></rect><text x="1120" y="666">files</text><text x="35" y="857">2</text><rect x="20" y="859" width="50" height="6" style="fill:lightblue;stroke-width:3;stroke:red;opacity:0.7"></rect><text x="20" y="876">firstname_lastname</text><text x="145" y="857">2</text><rect x="130" y="859" width="50" height="6" style="fill:lightblue;stroke-width:3;stroke:red;opacity:0.7"></rect><text x="130" y="876">folder</text><text x="255" y="857">2</text><rect x="240" y="859" width="50" height="6" style="fill:lightblue;stroke-width:3;stroke:red;opacity:0.7"></rect><text x="240" y="876">for</text><text x="365" y="857">2</text><rect x="350" y="859" width="50" height="6" style="fill:lightblue;stroke-width:3;stroke:red;opacity:0.7"></rect><text x="350" y="876">hello</text><text x="475" y="857">2</text><rect x="460" y="859" width="50" height="6" style="fill:lightblue;stroke-width:3;stroke:red;opacity:0.7"></rect><text x="460" y="876">here</text><text x="585" y="857">2</text><rect x="570" y="859" width="50" height="6" style="fill:lightblue;stroke-width:3;stroke:red;opacity:0.7"></rect><text x="570" y="876">how</text><text x="695" y="857">2</text><rect x="680" y="859" width="50" height="6" style="fill:lightblue;stroke-width:3;stroke:red;opacity:0.7"></rect><text x="680" y="876">https</text><text x="805" y="857">2</text><rect x="790" y="859" width="50" height="6" style="fill:lightblue;stroke-width:3;stroke:red;opacity:0.7"></rect><text x="790" y="876">named</text><text x="915" y="857">2</text><rect x="900" y="859" width="50" height="6" style="fill:lightblue;stroke-width:3;stroke:red;opacity:0.7"></rect><text x="900" y="876">number</text><text x="1025" y="857">2</text><rect x="1010" y="859" width="50" height="6" style="fill:lightblue;stroke-width:3;stroke:red;opacity:0.7"></rect><text x="1010" y="876">on</text><text x="1135" y="857">2</text><rect x="1120" y="859" width="50" height="6" style="fill:lightblue;stroke-width:3;stroke:red;opacity:0.7"></rect><text x="1120" y="876">quadratic</text><text x="35" y="1067">2</text><rect x="20" y="1069" width="50" height="6" style="fill:lightblue;stroke-width:3;stroke:red;opacity:0.7"></rect><text x="20" y="1086">readme20</text><text x="145" y="1067">2</text><rect x="130" y="1069" width="50" height="6" style="fill:lightblue;stroke-width:3;stroke:red;opacity:0.7"></rect><text x="130" y="1086">software_engineering_2015</text><text x="255" y="1067">2</text><rect x="240" y="1069" width="50" height="6" style="fill:lightblue;stroke-width:3;stroke:red;opacity:0.7"></rect><text x="240" y="1086">tasknumber</text><text x="365" y="1067">2</text><rect x="350" y="1069" width="50" height="6" style="fill:lightblue;stroke-width:3;stroke:red;opacity:0.7"></rect><text x="350" y="1086">where</text><text x="475" y="1067">2</text><rect x="460" y="1069" width="50" height="6" style="fill:lightblue;stroke-width:3;stroke:red;opacity:0.7"></rect><text x="460" y="1086">with</text><text x="585" y="1067">2</text><rect x="570" y="1069" width="50" height="6" style="fill:lightblue;stroke-width:3;stroke:red;opacity:0.7"></rect><text x="570" y="1086">you</text><text x="695" y="1070">1</text><rect x="680" y="1072" width="50" height="3" style="fill:lightblue;stroke-width:3;stroke:red;opacity:0.7"></rect><text x="680" y="1086">0</text><text x="805" y="1070">1</text><rect x="790" y="1072" width="50" height="3" style="fill:lightblue;stroke-width:3;stroke:red;opacity:0.7"></rect><text x="790" y="1086">00</text><text x="915" y="1070">1</text><rect x="900" y="1072" width="50" height="3" style="fill:lightblue;stroke-width:3;stroke:red;opacity:0.7"></rect><text x="900" y="1086">00first</text><text x="1025" y="1070">1</text><rect x="1010" y="1072" width="50" height="3" style="fill:lightblue;stroke-width:3;stroke:red;opacity:0.7"></rect><text x="1010" y="1086">00first20</text><text x="1135" y="1070">1</text><rect x="1120" y="1072" width="50" height="3" style="fill:lightblue;stroke-width:3;stroke:red;opacity:0.7"></rect><text x="1120" y="1086">09</text><text x="35" y="1280">1</text><rect x="20" y="1282" width="50" height="3" style="fill:lightblue;stroke-width:3;stroke:red;opacity:0.7"></rect><text x="20" y="1296">1</text><text x="145" y="1280">1</text><rect x="130" y="1282" width="50" height="3" style="fill:lightblue;stroke-width:3;stroke:red;opacity:0.7"></rect><text x="130" y="1296">10</text><text x="255" y="1280">1</text><rect x="240" y="1282" width="50" height="3" style="fill:lightblue;stroke-width:3;stroke:red;opacity:0.7"></rect><text x="240" y="1296">2</text><text x="365" y="1280">1</text><rect x="350" y="1282" width="50" height="3" style="fill:lightblue;stroke-width:3;stroke:red;opacity:0.7"></rect><text x="350" y="1296">20</text><text x="475" y="1280">1</text><rect x="460" y="1282" width="50" height="3" style="fill:lightblue;stroke-width:3;stroke:red;opacity:0.7"></rect><text x="460" y="1296">2015</text><text x="585" y="1280">1</text><rect x="570" y="1282" width="50" height="3" style="fill:lightblue;stroke-width:3;stroke:red;opacity:0.7"></rect><text x="570" y="1296">28</text><text x="695" y="1280">1</text><rect x="680" y="1282" width="50" height="3" style="fill:lightblue;stroke-width:3;stroke:red;opacity:0.7"></rect><text x="680" y="1296">30</text><text x="805" y="1280">1</text><rect x="790" y="1282" width="50" height="3" style="fill:lightblue;stroke-width:3;stroke:red;opacity:0.7"></rect><text x="790" y="1296">all</text><text x="915" y="1280">1</text><rect x="900" y="1282" width="50" height="3" style="fill:lightblue;stroke-width:3;stroke:red;opacity:0.7"></rect><text x="900" y="1296">are</text><text x="1025" y="1280">1</text><rect x="1010" y="1282" width="50" height="3" style="fill:lightblue;stroke-width:3;stroke:red;opacity:0.7"></rect><text x="1010" y="1296">at</text><text x="1135" y="1280">1</text><rect x="1120" y="1282" width="50" height="3" style="fill:lightblue;stroke-width:3;stroke:red;opacity:0.7"></rect><text x="1120" y="1296">ax</text><text x="35" y="1490">1</text><rect x="20" y="1492" width="50" height="3" style="fill:lightblue;stroke-width:3;stroke:red;opacity:0.7"></rect><text x="20" y="1506">bx</text><text x="145" y="1490">1</text><rect x="130" y="1492" width="50" height="3" style="fill:lightblue;stroke-width:3;stroke:red;opacity:0.7"></rect><text x="130" y="1506">can</text><text x="255" y="1490">1</text><rect x="240" y="1492" width="50" height="3" style="fill:lightblue;stroke-width:3;stroke:red;opacity:0.7"></rect><text x="240" y="1506">capital</text><text x="365" y="1490">1</text><rect x="350" y="1492" width="50" height="3" style="fill:lightblue;stroke-width:3;stroke:red;opacity:0.7"></rect><text x="350" y="1506">class</text><text x="475" y="1490">1</text><rect x="460" y="1492" width="50" height="3" style="fill:lightblue;stroke-width:3;stroke:red;opacity:0.7"></rect><text x="460" y="1506">class1_hm_quadratic_equation</text><text x="585" y="1490">1</text><rect x="570" y="1492" width="50" height="3" style="fill:lightblue;stroke-width:3;stroke:red;opacity:0.7"></rect><text x="570" y="1506">class_number_firstname_lastname</text><text x="695" y="1490">1</text><rect x="680" y="1492" width="50" height="3" style="fill:lightblue;stroke-width:3;stroke:red;opacity:0.7"></rect><text x="680" y="1506">da</text><text x="805" y="1490">1</text><rect x="790" y="1492" width="50" height="3" style="fill:lightblue;stroke-width:3;stroke:red;opacity:0.7"></rect><text x="790" y="1506">daniel</text><text x="915" y="1490">1</text><rect x="900" y="1492" width="50" height="3" style="fill:lightblue;stroke-width:3;stroke:red;opacity:0.7"></rect><text x="900" y="1506">deadline</text><text x="1025" y="1490">1</text><rect x="1010" y="1492" width="50" height="3" style="fill:lightblue;stroke-width:3;stroke:red;opacity:0.7"></rect><text x="1010" y="1506">entry</text><text x="1135" y="1490">1</text><rect x="1120" y="1492" width="50" height="3" style="fill:lightblue;stroke-width:3;stroke:red;opacity:0.7"></rect><text x="1120" y="1506">epic</text><text x="35" y="1700">1</text><rect x="20" y="1702" width="50" height="3" style="fill:lightblue;stroke-width:3;stroke:red;opacity:0.7"></rect><text x="20" y="1716">every</text><text x="145" y="1700">1</text><rect x="130" y="1702" width="50" height="3" style="fill:lightblue;stroke-width:3;stroke:red;opacity:0.7"></rect><text x="130" y="1716">firstname_lastname_</text><text x="255" y="1700">1</text><rect x="240" y="1702" width="50" height="3" style="fill:lightblue;stroke-width:3;stroke:red;opacity:0.7"></rect><text x="240" y="1716">ftw</text><text x="365" y="1700">1</text><rect x="350" y="1702" width="50" height="3" style="fill:lightblue;stroke-width:3;stroke:red;opacity:0.7"></rect><text x="350" y="1716">have</text><text x="475" y="1700">1</text><rect x="460" y="1702" width="50" height="3" style="fill:lightblue;stroke-width:3;stroke:red;opacity:0.7"></rect><text x="460" y="1716">i</text><text x="585" y="1700">1</text><rect x="570" y="1702" width="50" height="3" style="fill:lightblue;stroke-width:3;stroke:red;opacity:0.7"></rect><text x="570" y="1716">if</text><text x="695" y="1700">1</text><rect x="680" y="1702" width="50" height="3" style="fill:lightblue;stroke-width:3;stroke:red;opacity:0.7"></rect><text x="680" y="1716">implement</text><text x="805" y="1700">1</text><rect x="790" y="1702" width="50" height="3" style="fill:lightblue;stroke-width:3;stroke:red;opacity:0.7"></rect><text x="790" y="1716">inside</text><text x="915" y="1700">1</text><rect x="900" y="1702" width="50" height="3" style="fill:lightblue;stroke-width:3;stroke:red;opacity:0.7"></rect><text x="900" y="1716">kind</text><text x="1025" y="1700">1</text><rect x="1010" y="1702" width="50" height="3" style="fill:lightblue;stroke-width:3;stroke:red;opacity:0.7"></rect><text x="1010" y="1716">kirov</text><text x="1135" y="1700">1</text><rect x="1120" y="1702" width="50" height="3" style="fill:lightblue;stroke-width:3;stroke:red;opacity:0.7"></rect><text x="1120" y="1716">ko</text><text x="35" y="1910">1</text><rect x="20" y="1912" width="50" height="3" style="fill:lightblue;stroke-width:3;stroke:red;opacity:0.7"></rect><text x="20" y="1926">learn</text><text x="145" y="1910">1</text><rect x="130" y="1912" width="50" height="3" style="fill:lightblue;stroke-width:3;stroke:red;opacity:0.7"></rect><text x="130" y="1926">letter</text><text x="255" y="1910">1</text><rect x="240" y="1912" width="50" height="3" style="fill:lightblue;stroke-width:3;stroke:red;opacity:0.7"></rect><text x="240" y="1926">level</text><text x="365" y="1910">1</text><rect x="350" y="1912" width="50" height="3" style="fill:lightblue;stroke-width:3;stroke:red;opacity:0.7"></rect><text x="350" y="1926">like</text><text x="475" y="1910">1</text><rect x="460" y="1912" width="50" height="3" style="fill:lightblue;stroke-width:3;stroke:red;opacity:0.7"></rect><text x="460" y="1926">located</text><text x="585" y="1910">1</text><rect x="570" y="1912" width="50" height="3" style="fill:lightblue;stroke-width:3;stroke:red;opacity:0.7"></rect><text x="570" y="1926">many</text><text x="695" y="1910">1</text><rect x="680" y="1912" width="50" height="3" style="fill:lightblue;stroke-width:3;stroke:red;opacity:0.7"></rect><text x="680" y="1926">master</text><text x="805" y="1910">1</text><rect x="790" y="1912" width="50" height="3" style="fill:lightblue;stroke-width:3;stroke:red;opacity:0.7"></rect><text x="790" y="1926">my_program</text><text x="915" y="1910">1</text><rect x="900" y="1912" width="50" height="3" style="fill:lightblue;stroke-width:3;stroke:red;opacity:0.7"></rect><text x="900" y="1926">name</text><text x="1025" y="1910">1</text><rect x="1010" y="1912" width="50" height="3" style="fill:lightblue;stroke-width:3;stroke:red;opacity:0.7"></rect><text x="1010" y="1926">nothing</text><text x="1135" y="1910">1</text><rect x="1120" y="1912" width="50" height="3" style="fill:lightblue;stroke-width:3;stroke:red;opacity:0.7"></rect><text x="1120" y="1926">numbers</text><text x="35" y="2120">1</text><rect x="20" y="2122" width="50" height="3" style="fill:lightblue;stroke-width:3;stroke:red;opacity:0.7"></rect><text x="20" y="2136">of</text><text x="145" y="2120">1</text><rect x="130" y="2122" width="50" height="3" style="fill:lightblue;stroke-width:3;stroke:red;opacity:0.7"></rect><text x="130" y="2136">or</text><text x="255" y="2120">1</text><rect x="240" y="2122" width="50" height="3" style="fill:lightblue;stroke-width:3;stroke:red;opacity:0.7"></rect><text x="240" y="2136">output</text><text x="365" y="2120">1</text><rect x="350" y="2122" width="50" height="3" style="fill:lightblue;stroke-width:3;stroke:red;opacity:0.7"></rect><text x="350" y="2136">passign</text><text x="475" y="2120">1</text><rect x="460" y="2122" width="50" height="3" style="fill:lightblue;stroke-width:3;stroke:red;opacity:0.7"></rect><text x="460" y="2136">pdf</text><text x="585" y="2120">1</text><rect x="570" y="2122" width="50" height="3" style="fill:lightblue;stroke-width:3;stroke:red;opacity:0.7"></rect><text x="570" y="2136">pizza</text><text x="695" y="2120">1</text><rect x="680" y="2122" width="50" height="3" style="fill:lightblue;stroke-width:3;stroke:red;opacity:0.7"></rect><text x="680" y="2136">process</text><text x="805" y="2120">1</text><rect x="790" y="2122" width="50" height="3" style="fill:lightblue;stroke-width:3;stroke:red;opacity:0.7"></rect><text x="790" y="2136">programmer</text><text x="915" y="2120">1</text><rect x="900" y="2122" width="50" height="3" style="fill:lightblue;stroke-width:3;stroke:red;opacity:0.7"></rect><text x="900" y="2136">programs</text><text x="1025" y="2120">1</text><rect x="1010" y="2122" width="50" height="3" style="fill:lightblue;stroke-width:3;stroke:red;opacity:0.7"></rect><text x="1010" y="2136">puts</text><text x="1135" y="2120">1</text><rect x="1120" y="2122" width="50" height="3" style="fill:lightblue;stroke-width:3;stroke:red;opacity:0.7"></rect><text x="1120" y="2136">quadratic_equation</text><text x="35" y="2330">1</text><rect x="20" y="2332" width="50" height="3" style="fill:lightblue;stroke-width:3;stroke:red;opacity:0.7"></rect><text x="20" y="2346">rb</text><text x="145" y="2330">1</text><rect x="130" y="2332" width="50" height="3" style="fill:lightblue;stroke-width:3;stroke:red;opacity:0.7"></rect><text x="130" y="2346">read</text><text x="255" y="2330">1</text><rect x="240" y="2332" width="50" height="3" style="fill:lightblue;stroke-width:3;stroke:red;opacity:0.7"></rect><text x="240" y="2346">result</text><text x="365" y="2330">1</text><rect x="350" y="2332" width="50" height="3" style="fill:lightblue;stroke-width:3;stroke:red;opacity:0.7"></rect><text x="350" y="2346">returned</text><text x="475" y="2330">1</text><rect x="460" y="2332" width="50" height="3" style="fill:lightblue;stroke-width:3;stroke:red;opacity:0.7"></rect><text x="460" y="2346">returns</text><text x="585" y="2330">1</text><rect x="570" y="2332" width="50" height="3" style="fill:lightblue;stroke-width:3;stroke:red;opacity:0.7"></rect><text x="570" y="2346">run</text><text x="695" y="2330">1</text><rect x="680" y="2332" width="50" height="3" style="fill:lightblue;stroke-width:3;stroke:red;opacity:0.7"></rect><text x="680" y="2346">separate</text><text x="805" y="2330">1</text><rect x="790" y="2332" width="50" height="3" style="fill:lightblue;stroke-width:3;stroke:red;opacity:0.7"></rect><text x="790" y="2346">separated</text><text x="915" y="2330">1</text><rect x="900" y="2332" width="50" height="3" style="fill:lightblue;stroke-width:3;stroke:red;opacity:0.7"></rect><text x="900" y="2346">simple</text><text x="1025" y="2330">1</text><rect x="1010" y="2332" width="50" height="3" style="fill:lightblue;stroke-width:3;stroke:red;opacity:0.7"></rect><text x="1010" y="2346">solutions</text><text x="1135" y="2330">1</text><rect x="1120" y="2332" width="50" height="3" style="fill:lightblue;stroke-width:3;stroke:red;opacity:0.7"></rect><text x="1120" y="2346">solve</text><text x="35" y="2540">1</text><rect x="20" y="2542" width="50" height="3" style="fill:lightblue;stroke-width:3;stroke:red;opacity:0.7"></rect><text x="20" y="2556">solved</text><text x="145" y="2540">1</text><rect x="130" y="2542" width="50" height="3" style="fill:lightblue;stroke-width:3;stroke:red;opacity:0.7"></rect><text x="130" y="2556">solves</text><text x="255" y="2540">1</text><rect x="240" y="2542" width="50" height="3" style="fill:lightblue;stroke-width:3;stroke:red;opacity:0.7"></rect><text x="240" y="2556">solving</text><text x="365" y="2540">1</text><rect x="350" y="2542" width="50" height="3" style="fill:lightblue;stroke-width:3;stroke:red;opacity:0.7"></rect><text x="350" y="2556">something</text><text x="475" y="2540">1</text><rect x="460" y="2542" width="50" height="3" style="fill:lightblue;stroke-width:3;stroke:red;opacity:0.7"></rect><text x="460" y="2556">sta</text><text x="585" y="2540">1</text><rect x="570" y="2542" width="50" height="3" style="fill:lightblue;stroke-width:3;stroke:red;opacity:0.7"></rect><text x="570" y="2556">standard</text><text x="695" y="2540">1</text><rect x="680" y="2542" width="50" height="3" style="fill:lightblue;stroke-width:3;stroke:red;opacity:0.7"></rect><text x="680" y="2556">task</text><text x="805" y="2540">1</text><rect x="790" y="2542" width="50" height="3" style="fill:lightblue;stroke-width:3;stroke:red;opacity:0.7"></rect><text x="790" y="2556">then</text><text x="915" y="2540">1</text><rect x="900" y="2542" width="50" height="3" style="fill:lightblue;stroke-width:3;stroke:red;opacity:0.7"></rect><text x="900" y="2556">there</text><text x="1025" y="2540">1</text><rect x="1010" y="2542" width="50" height="3" style="fill:lightblue;stroke-width:3;stroke:red;opacity:0.7"></rect><text x="1010" y="2556">three</text><text x="1135" y="2540">1</text><rect x="1120" y="2542" width="50" height="3" style="fill:lightblue;stroke-width:3;stroke:red;opacity:0.7"></rect><text x="1120" y="2556">txt</text><text x="35" y="2750">1</text><rect x="20" y="2752" width="50" height="3" style="fill:lightblue;stroke-width:3;stroke:red;opacity:0.7"></rect><text x="20" y="2766">what</text><text x="145" y="2750">1</text><rect x="130" y="2752" width="50" height="3" style="fill:lightblue;stroke-width:3;stroke:red;opacity:0.7"></rect><text x="130" y="2766">why</text><text x="255" y="2750">1</text><rect x="240" y="2752" width="50" height="3" style="fill:lightblue;stroke-width:3;stroke:red;opacity:0.7"></rect><text x="240" y="2766">work</text><text x="365" y="2750">1</text><rect x="350" y="2752" width="50" height="3" style="fill:lightblue;stroke-width:3;stroke:red;opacity:0.7"></rect><text x="350" y="2766">world</text><text x="475" y="2750">1</text><rect x="460" y="2752" width="50" height="3" style="fill:lightblue;stroke-width:3;stroke:red;opacity:0.7"></rect><text x="460" y="2766">x1</text><text x="585" y="2750">1</text><rect x="570" y="2752" width="50" height="3" style="fill:lightblue;stroke-width:3;stroke:red;opacity:0.7"></rect><text x="570" y="2766">x2</text><text x="695" y="2750">1</text><rect x="680" y="2752" width="50" height="3" style="fill:lightblue;stroke-width:3;stroke:red;opacity:0.7"></rect><text x="680" y="2766">your</text></svg>