<svg xmlns="http://www.w3.org/2000/svg"><rect x="0" y="0" width="15" height="90" style="fill:blue;stroke:blue;stroke-width:2;fill-opacity:0.1;stroke-opacity:0.9"/><text x="20" y="10" font-family="sans-serif" font-size="10px" fill="black" transform="rotate(-90,90,90)" >2015</text><rect x="15" y="0" width="15" height="90" style="fill:blue;stroke:blue;stroke-width:2;fill-opacity:0.1;stroke-opacity:0.9"/><text x="20" y="25" font-family="sans-serif" font-size="10px" fill="black" transform="rotate(-90,90,90)" >com</text><rect x="30" y="0" width="15" height="90" style="fill:blue;stroke:blue;stroke-width:2;fill-opacity:0.1;stroke-opacity:0.9"/><text x="20" y="40" font-family="sans-serif" font-size="10px" fill="black" transform="rotate(-90,90,90)" >count</text><rect x="45" y="0" width="15" height="90" style="fill:blue;stroke:blue;stroke-width:2;fill-opacity:0.1;stroke-opacity:0.9"/><text x="20" y="55" font-family="sans-serif" font-size="10px" fill="black" transform="rotate(-90,90,90)" >counting</text><rect x="60" y="0" width="15" height="90" style="fill:blue;stroke:blue;stroke-width:2;fill-opacity:0.1;stroke-opacity:0.9"/><text x="20" y="70" font-family="sans-serif" font-size="10px" fill="black" transform="rotate(-90,90,90)" >engineering</text><rect x="75" y="0" width="15" height="90" style="fill:blue;stroke:blue;stroke-width:2;fill-opacity:0.1;stroke-opacity:0.9"/><text x="20" y="85" font-family="sans-serif" font-size="10px" fill="black" transform="rotate(-90,90,90)" >for</text><rect x="90" y="0" width="15" height="90" style="fill:blue;stroke:blue;stroke-width:2;fill-opacity:0.1;stroke-opacity:0.9"/><text x="20" y="100" font-family="sans-serif" font-size="10px" fill="black" transform="rotate(-90,90,90)" >githubusercontent</text><rect x="105" y="0" width="15" height="90" style="fill:blue;stroke:blue;stroke-width:2;fill-opacity:0.1;stroke-opacity:0.9"/><text x="20" y="115" font-family="sans-serif" font-size="10px" fill="black" transform="rotate(-90,90,90)" >hm</text><rect x="120" y="0" width="15" height="90" style="fill:blue;stroke:blue;stroke-width:2;fill-opacity:0.1;stroke-opacity:0.9"/><text x="20" y="130" font-family="sans-serif" font-size="10px" fill="black" transform="rotate(-90,90,90)" >https</text><rect x="135" y="0" width="15" height="90" style="fill:blue;stroke:blue;stroke-width:2;fill-opacity:0.1;stroke-opacity:0.9"/><text x="20" y="145" font-family="sans-serif" font-size="10px" fill="black" transform="rotate(-90,90,90)" >master</text><rect x="150" y="0" width="15" height="90" style="fill:blue;stroke:blue;stroke-width:2;fill-opacity:0.1;stroke-opacity:0.9"/><text x="20" y="160" font-family="sans-serif" font-size="10px" fill="black" transform="rotate(-90,90,90)" >program</text><rect x="165" y="0" width="15" height="90" style="fill:blue;stroke:blue;stroke-width:2;fill-opacity:0.1;stroke-opacity:0.9"/><text x="20" y="175" font-family="sans-serif" font-size="10px" fill="black" transform="rotate(-90,90,90)" >raw</text><rect x="180" y="0" width="15" height="90" style="fill:blue;stroke:blue;stroke-width:2;fill-opacity:0.1;stroke-opacity:0.9"/><text x="20" y="190" font-family="sans-serif" font-size="10px" fill="black" transform="rotate(-90,90,90)" >rb</text><rect x="195" y="0" width="15" height="90" style="fill:blue;stroke:blue;stroke-width:2;fill-opacity:0.1;stroke-opacity:0.9"/><text x="20" y="205" font-family="sans-serif" font-size="10px" fill="black" transform="rotate(-90,90,90)" >ruby</text><rect x="210" y="0" width="15" height="90" style="fill:blue;stroke:blue;stroke-width:2;fill-opacity:0.1;stroke-opacity:0.9"/><text x="20" y="220" font-family="sans-serif" font-size="10px" fill="black" transform="rotate(-90,90,90)" >software</text><rect x="225" y="0" width="15" height="90" style="fill:blue;stroke:blue;stroke-width:2;fill-opacity:0.1;stroke-opacity:0.9"/><text x="20" y="235" font-family="sans-serif" font-size="10px" fill="black" transform="rotate(-90,90,90)" >thebravoman</text><rect x="240" y="0" width="15" height="90" style="fill:blue;stroke:blue;stroke-width:2;fill-opacity:0.1;stroke-opacity:0.9"/><text x="20" y="250" font-family="sans-serif" font-size="10px" fill="black" transform="rotate(-90,90,90)" >words</text></svg>